<svg width="340" height="96" viewBox="0 0 340 96" fill="none" xmlns="http://www.w3.org/2000/svg">
<path fill-rule="evenodd" clip-rule="evenodd" d="M44 92C68.3005 92 88 72.3005 88 48C88 23.6995 68.3005 4 44 4C19.6994 4 0 23.6995 0 48C0 72.3005 19.6994 92 44 92ZM57.7265 24.4971C58.3946 22.1237 56.0914 20.7203 53.988 22.2189L24.6248 43.1371C22.3437 44.7622 22.7025 48 25.1638 48H32.896V47.9401H47.9655L35.6867 52.2726L30.2736 71.503C29.6054 73.8764 31.9084 75.2798 34.012 73.7811L63.3752 52.8631C65.6564 51.2379 65.2973 48 62.8362 48H51.1106L57.7265 24.4971Z" fill="#155EEF"/>
<path d="M110.76 67.8185V60.8585H116.28V32.7785H110.76V25.8185H132.36C134.92 25.8185 137.14 26.2585 139.02 27.1385C140.94 27.9785 142.42 29.1985 143.46 30.7985C144.54 32.3585 145.08 34.2385 145.08 36.4385V37.0385C145.08 38.9585 144.72 40.5385 144 41.7785C143.28 42.9785 142.42 43.9185 141.42 44.5985C140.46 45.2385 139.54 45.6985 138.66 45.9785V47.0585C139.54 47.2985 140.5 47.7585 141.54 48.4385C142.58 49.0785 143.46 50.0185 144.18 51.2585C144.94 52.4985 145.32 54.1185 145.32 56.1185V56.7185C145.32 59.0385 144.78 61.0385 143.7 62.7185C142.62 64.3585 141.12 65.6185 139.2 66.4985C137.32 67.3785 135.12 67.8185 132.6 67.8185H110.76ZM124.2 60.6185H131.64C133.36 60.6185 134.74 60.1985 135.78 59.3585C136.86 58.5185 137.4 57.3185 137.4 55.7585V55.1585C137.4 53.5985 136.88 52.3985 135.84 51.5585C134.8 50.7185 133.4 50.2985 131.64 50.2985H124.2V60.6185ZM124.2 43.0985H131.52C133.16 43.0985 134.5 42.6785 135.54 41.8385C136.62 40.9985 137.16 39.8385 137.16 38.3585V37.7585C137.16 36.2385 136.64 35.0785 135.6 34.2785C134.56 33.4385 133.2 33.0185 131.52 33.0185H124.2V43.0985Z" fill="#101828"/>
<path d="M163.204 68.6585C160.244 68.6585 157.584 68.0585 155.224 66.8585C152.864 65.6585 151.004 63.9185 149.644 61.6385C148.284 59.3585 147.604 56.6185 147.604 53.4185V52.4585C147.604 49.2585 148.284 46.5185 149.644 44.2385C151.004 41.9585 152.864 40.2185 155.224 39.0185C157.584 37.8185 160.244 37.2185 163.204 37.2185C166.164 37.2185 168.824 37.8185 171.184 39.0185C173.544 40.2185 175.404 41.9585 176.764 44.2385C178.124 46.5185 178.804 49.2585 178.804 52.4585V53.4185C178.804 56.6185 178.124 59.3585 176.764 61.6385C175.404 63.9185 173.544 65.6585 171.184 66.8585C168.824 68.0585 166.164 68.6585 163.204 68.6585ZM163.204 61.9385C165.524 61.9385 167.444 61.1985 168.964 59.7185C170.484 58.1985 171.244 56.0385 171.244 53.2385V52.6385C171.244 49.8385 170.484 47.6985 168.964 46.2185C167.484 44.6985 165.564 43.9385 163.204 43.9385C160.884 43.9385 158.964 44.6985 157.444 46.2185C155.924 47.6985 155.164 49.8385 155.164 52.6385V53.2385C155.164 56.0385 155.924 58.1985 157.444 59.7185C158.964 61.1985 160.884 61.9385 163.204 61.9385Z" fill="#101828"/>
<path d="M182.782 67.8185V25.8185H190.342V67.8185H182.782Z" fill="#101828"/>
<path d="M207.119 67.8185C205.159 67.8185 203.559 67.2185 202.319 66.0185C201.119 64.7785 200.519 63.1385 200.519 61.0985V44.2985H193.079V38.0585H200.519V28.8185H208.079V38.0585H216.239V44.2985H208.079V59.7785C208.079 60.9785 208.639 61.5785 209.759 61.5785H215.519V67.8185H207.119Z" fill="#101828"/>
<path d="M232.443 68.6585C228.563 68.6585 225.383 67.8185 222.903 66.1385C220.423 64.4585 218.923 62.0585 218.403 58.9385L225.363 57.1385C225.643 58.5385 226.103 59.6385 226.743 60.4385C227.423 61.2385 228.243 61.8185 229.203 62.1785C230.203 62.4985 231.283 62.6585 232.443 62.6585C234.203 62.6585 235.503 62.3585 236.343 61.7585C237.183 61.1185 237.603 60.3385 237.603 59.4185C237.603 58.4985 237.203 57.7985 236.403 57.3185C235.603 56.7985 234.323 56.3785 232.563 56.0585L230.883 55.7585C228.803 55.3585 226.903 54.8185 225.183 54.1385C223.463 53.4185 222.083 52.4385 221.043 51.1985C220.003 49.9585 219.483 48.3585 219.483 46.3985C219.483 43.4385 220.563 41.1785 222.723 39.6185C224.883 38.0185 227.723 37.2185 231.243 37.2185C234.563 37.2185 237.323 37.9585 239.523 39.4385C241.723 40.9185 243.163 42.8585 243.843 45.2585L236.823 47.4185C236.503 45.8985 235.843 44.8185 234.843 44.1785C233.883 43.5385 232.683 43.2185 231.243 43.2185C229.803 43.2185 228.703 43.4785 227.943 43.9985C227.183 44.4785 226.803 45.1585 226.803 46.0385C226.803 46.9985 227.203 47.7185 228.003 48.1985C228.803 48.6385 229.883 48.9785 231.243 49.2185L232.923 49.5185C235.163 49.9185 237.183 50.4585 238.983 51.1385C240.823 51.7785 242.263 52.7185 243.303 53.9585C244.383 55.1585 244.923 56.7985 244.923 58.8785C244.923 61.9985 243.783 64.4185 241.503 66.1385C239.263 67.8185 236.243 68.6585 232.443 68.6585Z" fill="#101828"/>
<path d="M248.547 67.8185V25.8185H256.107V41.7185H257.187C257.507 41.0785 258.007 40.4385 258.687 39.7985C259.367 39.1585 260.267 38.6385 261.387 38.2385C262.547 37.7985 264.007 37.5785 265.767 37.5785C268.087 37.5785 270.107 38.1185 271.827 39.1985C273.587 40.2385 274.947 41.6985 275.907 43.5785C276.867 45.4185 277.347 47.5785 277.347 50.0585V67.8185H269.787V50.6585C269.787 48.4185 269.227 46.7385 268.107 45.6185C267.027 44.4985 265.467 43.9385 263.427 43.9385C261.107 43.9385 259.307 44.7185 258.027 46.2785C256.747 47.7985 256.107 49.9385 256.107 52.6985V67.8185H248.547Z" fill="#101828"/>
<path d="M282.52 67.8185V38.0585H290.08V67.8185H282.52ZM286.3 34.5785C284.94 34.5785 283.78 34.1385 282.82 33.2585C281.9 32.3785 281.44 31.2185 281.44 29.7785C281.44 28.3385 281.9 27.1785 282.82 26.2985C283.78 25.4185 284.94 24.9785 286.3 24.9785C287.7 24.9785 288.86 25.4185 289.78 26.2985C290.7 27.1785 291.16 28.3385 291.16 29.7785C291.16 31.2185 290.7 32.3785 289.78 33.2585C288.86 34.1385 287.7 34.5785 286.3 34.5785Z" fill="#101828"/>
<path d="M300.378 67.8185V44.2985H292.818V38.0585H300.378V32.5385C300.378 30.4985 300.978 28.8785 302.178 27.6785C303.418 26.4385 305.018 25.8185 306.978 25.8185H314.778V32.0585H309.618C308.498 32.0585 307.938 32.6585 307.938 33.8585V38.0585H315.738V44.2985H307.938V67.8185H300.378Z" fill="#101828"/>
<path d="M329.404 67.8185C327.444 67.8185 325.844 67.2185 324.604 66.0185C323.404 64.7785 322.804 63.1385 322.804 61.0985V44.2985H315.364V38.0585H322.804V28.8185H330.364V38.0585H338.524V44.2985H330.364V59.7785C330.364 60.9785 330.924 61.5785 332.044 61.5785H337.804V67.8185H329.404Z" fill="#101828"/>
</svg>
