<svg width="85" height="32" viewBox="0 0 85 32" fill="none" xmlns="http://www.w3.org/2000/svg">
<path d="M41.3051 8.59927C41.3697 8.64935 41.431 8.70141 41.4918 8.75611C41.5097 8.77157 41.5276 8.78703 41.546 8.80297C41.8722 9.10361 42.1204 9.58662 42.1514 10.031C42.1535 10.1065 42.1538 10.1817 42.1531 10.2572C42.1528 10.2839 42.1526 10.3106 42.1524 10.3381C42.1422 10.9991 41.8405 11.4548 41.4298 11.9515C41.3653 12.0302 41.3024 12.1102 41.2397 12.1904C41.228 12.2053 41.2163 12.2202 41.2043 12.2356C41.1809 12.2655 41.1575 12.2955 41.1341 12.3254C41.0745 12.4017 41.0147 12.4777 40.9549 12.5538C40.9308 12.5843 40.9068 12.6149 40.8828 12.6454C40.4507 13.1954 40.4507 13.1954 40.4147 13.2412C40.3906 13.2719 40.3666 13.3025 40.3425 13.3332C40.2835 13.4083 40.2244 13.4834 40.1654 13.5584C40.0148 13.7497 39.8651 13.9416 39.7158 14.1338C39.6114 14.2681 39.5066 14.402 39.4013 14.5356C39.3032 14.6604 39.2058 14.7856 39.1084 14.9109C38.9635 15.0975 38.8179 15.2835 38.6717 15.4691C38.6121 15.5449 38.5525 15.6208 38.4929 15.6966C38.4689 15.7272 38.4449 15.7577 38.4209 15.7883C38.409 15.8034 38.3971 15.8185 38.3849 15.8341C38.2529 16.0022 38.1208 16.1702 37.9888 16.3383C37.9769 16.3534 37.965 16.3685 37.9528 16.3841C37.9287 16.4147 37.9047 16.4453 37.8806 16.4759C37.8211 16.5516 37.7617 16.6273 37.7025 16.7031C37.5606 16.8846 37.4167 17.0641 37.271 17.2426C37.1773 17.3576 37.0849 17.4736 36.9935 17.5905C36.8921 17.7203 36.789 17.8486 36.6843 17.9758C36.6059 18.0713 36.528 18.1673 36.4501 18.2633C36.3334 18.407 36.2165 18.5506 36.0992 18.6937C36.0618 18.7393 36.0246 18.7849 35.9874 18.8306C35.869 18.9761 35.7488 19.1199 35.6273 19.2629C35.5519 19.3518 35.4776 19.4414 35.4041 19.5319C35.2758 19.6894 35.1434 19.8433 35.0108 19.9972C34.9448 20.0739 34.879 20.1507 34.8132 20.2276C34.7938 20.2502 34.7938 20.2502 34.7741 20.2732C34.7075 20.3508 34.641 20.4285 34.5747 20.5063C34.438 20.6665 34.3002 20.8252 34.1587 20.9812C34.11 21.0351 34.062 21.0895 34.0143 21.1443C33.9067 21.2678 33.7968 21.3893 33.687 21.5109C33.6477 21.5546 33.6084 21.5982 33.5691 21.6419C33.5398 21.6745 33.5398 21.6745 33.5099 21.7077C33.4716 21.7503 33.4333 21.7929 33.3951 21.8356C33.2323 22.0171 33.0671 22.1964 32.9012 22.3752C32.886 22.3917 32.8708 22.4081 32.8552 22.425C32.5243 22.7822 32.5243 22.7822 32.3554 22.9456C32.3093 22.9931 32.2668 23.0412 32.224 23.0916C32.0866 23.249 31.9376 23.395 31.7899 23.5425C31.7583 23.574 31.7268 23.6056 31.6953 23.6371C31.6295 23.703 31.5636 23.7688 31.4978 23.8345C31.4138 23.9183 31.33 24.0022 31.2462 24.0862C31.1812 24.1513 31.1161 24.2163 31.051 24.2813C31.0201 24.3122 30.9892 24.3431 30.9584 24.3741C30.8118 24.5209 30.6656 24.667 30.5072 24.8012C30.4416 24.8578 30.382 24.9192 30.3215 24.9812C30.2275 25.0765 30.1315 25.1674 30.0297 25.2543C29.9418 25.3315 29.8568 25.4118 29.7715 25.4919C29.6541 25.6019 29.5366 25.7111 29.4146 25.8159C29.3554 25.8674 29.2975 25.9203 29.2395 25.9732C29.1488 26.0551 29.0563 26.1337 28.9612 26.2105C28.8616 26.2911 28.7657 26.3742 28.6714 26.461C28.5558 26.5673 28.4367 26.6677 28.3145 26.7664C28.2333 26.8326 28.1536 26.9004 28.074 26.9684C27.9278 27.0929 27.778 27.212 27.6266 27.33C27.5283 27.4066 27.4312 27.4846 27.3341 27.5626C27.1726 27.6922 27.0094 27.8193 26.8448 27.9449C26.7951 27.9828 26.7456 28.021 26.6961 28.0591C26.4189 28.2724 26.1385 28.481 25.856 28.6872C25.8358 28.7019 25.8156 28.7167 25.7948 28.7318C25.163 29.1926 24.5153 29.6293 23.8393 30.0229C23.8216 30.0332 23.8039 30.0435 23.7857 30.0541C23.4689 30.2377 23.1442 30.4069 22.8178 30.5729C22.7844 30.59 22.7844 30.59 22.7503 30.6074C21.4336 31.2734 19.9419 31.6994 18.4663 31.7736C18.3796 31.7783 18.2931 31.785 18.2065 31.7914C16.6543 31.8949 15.0833 31.6505 13.6118 31.1589C13.5915 31.1521 13.5712 31.1454 13.5503 31.1384C12.9975 30.953 12.4724 30.7196 11.9491 30.4638C11.2886 30.141 10.6181 29.8421 9.93205 29.5777C9.91517 29.5712 9.8983 29.5646 9.88091 29.5579C8.44344 29.0057 6.78229 28.6732 5.28648 29.1881C4.82906 29.3446 4.26676 29.4073 3.80344 29.2372C3.77569 29.228 3.74794 29.2188 3.71934 29.2093C3.39913 29.0962 3.15682 28.9201 2.91296 28.6872C2.89685 28.673 2.88075 28.6589 2.86416 28.6443C2.47889 28.2927 2.2473 27.714 2.22382 27.2026C2.20504 26.5443 2.4079 25.9924 2.85894 25.5067C3.14628 25.2314 3.50512 25.026 3.83517 24.807C4.18174 24.5769 4.5263 24.3439 4.871 24.1111C5.26736 23.8434 5.26736 23.8434 5.46501 23.712C5.7212 23.5416 5.97599 23.3691 6.23098 23.197C6.77853 22.8273 6.77853 22.8273 7.01826 22.6679C7.25818 22.5076 7.49699 22.3456 7.73612 22.1842C7.9812 22.0187 8.22631 21.8533 8.47253 21.6896C8.71102 21.5308 8.94818 21.3701 9.18561 21.2098C9.73316 20.84 9.73316 20.84 9.99134 20.6683C10.2299 20.5095 10.4672 20.3487 10.7047 20.1883C11.0064 19.9846 11.3082 19.781 11.6113 19.5795C11.7036 19.5181 11.7958 19.4565 11.8881 19.395C11.9262 19.3696 11.9643 19.3442 12.0024 19.3188C12.0212 19.3062 12.0401 19.2937 12.0595 19.2807C12.2147 19.1773 12.3698 19.0739 12.5249 18.9705C12.5105 18.966 12.496 18.9616 12.4811 18.957C12.3076 18.9039 12.1341 18.8504 11.9606 18.7969C11.8798 18.772 11.7989 18.7471 11.718 18.7222C11.1301 18.5414 10.5441 18.3557 9.95988 18.1635C9.34594 17.9615 8.7307 17.7679 8.10666 17.5992C8.05929 17.586 8.01207 17.5722 7.96491 17.5583C7.74705 17.4944 7.52898 17.4422 7.30644 17.3974C7.27344 17.3907 7.24045 17.3839 7.20645 17.377C6.72148 17.2792 6.2515 17.2095 5.75628 17.2091C5.73651 17.2091 5.71674 17.2091 5.69638 17.2091C5.39137 17.2095 5.09618 17.2208 4.79868 17.2943C4.78127 17.2985 4.76386 17.3027 4.74592 17.307C4.2637 17.4291 3.83871 17.666 3.44813 17.9691C2.94799 18.3534 2.38808 18.5192 1.75549 18.4394C1.3793 18.377 1.02525 18.1987 0.739134 17.949C0.71378 17.9288 0.688425 17.9086 0.662302 17.8878C0.301904 17.5871 0.0562586 17.0731 0.00579658 16.6133C-0.031769 15.9784 0.109754 15.4277 0.532883 14.9371C1.40023 14.0131 2.69481 13.4411 3.9082 13.1561C3.92616 13.1519 3.94412 13.1476 3.96263 13.1432C4.48358 13.0214 5.01337 12.9863 5.54678 12.9902C5.63674 12.9908 5.72668 12.9907 5.81664 12.9906C6.40825 12.9912 6.98417 13.0429 7.56671 13.1447C7.60603 13.1514 7.60603 13.1514 7.64614 13.1583C8.34095 13.2785 9.02401 13.4394 9.69554 13.6552C9.77097 13.6787 9.84669 13.701 9.92257 13.723C10.1743 13.796 10.4237 13.8752 10.6729 13.9566C10.7147 13.9702 10.7565 13.9838 10.7983 13.9974C10.9071 14.0327 11.0159 14.0682 11.1247 14.1036C11.2988 14.1604 11.4729 14.217 11.6471 14.2736C11.707 14.2931 11.7668 14.3126 11.8267 14.3322C13.9157 15.0391 13.9157 15.0391 16.0868 15.33C16.1119 15.3305 16.1369 15.331 16.1626 15.3316C16.6559 15.3407 17.1153 15.3109 17.5977 15.2088C18.224 15.0783 18.8496 15.1614 19.4049 15.492C19.9554 15.8628 20.335 16.4177 20.4676 17.0687C20.5744 17.6765 20.4066 18.2848 20.0685 18.7937C19.7713 19.1969 19.3681 19.4595 18.9554 19.7317C18.8344 19.8115 18.7138 19.8916 18.5931 19.9717C18.5681 19.9883 18.5431 20.0049 18.5173 20.022C18.2371 20.208 17.9583 20.3961 17.6796 20.5845C17.5886 20.6459 17.4977 20.7074 17.4067 20.7688C17.3853 20.7833 17.3639 20.7978 17.3418 20.8127C17.2171 20.8968 17.0922 20.9806 16.967 21.0639C16.712 21.2334 16.4585 21.4051 16.2047 21.5764C15.6572 21.9462 15.6572 21.9462 15.399 22.1179C15.1604 22.2767 14.9232 22.4375 14.6856 22.5979C14.1381 22.9676 14.1381 22.9676 13.8799 23.1393C13.6414 23.2981 13.4041 23.4589 13.1666 23.6193C12.6191 23.989 12.6191 23.989 12.4074 24.1298C12.1516 24.2999 11.8972 24.4721 11.6426 24.644C10.7929 25.2177 10.7929 25.2177 10.6392 25.3086C10.6551 25.3113 10.671 25.3141 10.6873 25.3169C10.8516 25.3473 11.0048 25.3915 11.1614 25.4494C11.1859 25.4584 11.2105 25.4673 11.2358 25.4766C11.466 25.5627 11.689 25.6635 11.9126 25.7653C12.1176 25.8577 12.3246 25.9386 12.5364 26.0141C12.8598 26.1303 13.1683 26.2702 13.4785 26.4177C14.4028 26.8573 15.3026 27.229 16.3226 27.3777C16.3423 27.3806 16.3621 27.3836 16.3825 27.3866C16.7911 27.4477 17.1968 27.4624 17.6092 27.4628C17.6332 27.4628 17.6573 27.4629 17.6821 27.4629C18.098 27.4629 18.5035 27.4382 18.9154 27.3777C18.9442 27.3735 18.973 27.3693 19.0027 27.365C19.1659 27.3407 19.3275 27.3131 19.4884 27.2762C19.5084 27.2716 19.5285 27.267 19.5492 27.2623C19.6087 27.2486 19.668 27.2346 19.7273 27.2205C19.7582 27.2133 19.7891 27.2061 19.8209 27.1987C20.3202 27.0742 20.8091 26.8935 21.2726 26.6705C21.29 26.6622 21.3075 26.6539 21.3255 26.6453C21.9571 26.3421 22.5598 25.9827 23.1134 25.5527C23.18 25.5014 23.2478 25.4518 23.3155 25.4019C23.4956 25.2668 23.6695 25.1241 23.8436 24.9813C23.8854 24.947 23.9275 24.9129 23.9695 24.8788C24.1488 24.7333 24.3241 24.5834 24.499 24.4327C24.5463 24.3921 24.5937 24.3516 24.6412 24.3112C24.7834 24.19 24.9245 24.0682 25.0621 23.9418C25.153 23.8582 25.2457 23.7785 25.342 23.7011C25.4676 23.5999 25.5854 23.4923 25.703 23.3821C25.8134 23.2794 25.9283 23.184 26.0459 23.0897C26.1248 23.0243 26.2001 22.9557 26.275 22.886C26.3721 22.7956 26.471 22.7088 26.5746 22.6257C26.7164 22.5115 26.8491 22.389 26.9822 22.2649C27.0596 22.1926 27.1389 22.1226 27.219 22.0533C27.2803 21.9998 27.3408 21.9453 27.4012 21.8907C27.4793 21.8203 27.5576 21.7503 27.6369 21.6812C27.8399 21.5041 28.0386 21.3223 28.2369 21.14C28.2916 21.0898 28.3464 21.0397 28.4013 20.9898C28.5279 20.8744 28.653 20.7584 28.7729 20.6359C28.8181 20.5917 28.8654 20.5514 28.9137 20.5108C29.008 20.4292 29.094 20.3417 29.1789 20.2505C29.1914 20.2374 29.2039 20.2242 29.2167 20.2106C29.2882 20.1326 29.3292 20.0642 29.3655 19.9657C29.0653 19.6649 28.765 19.3641 28.4646 19.0634C28.3251 18.9238 28.1856 18.7842 28.0462 18.6445C27.9247 18.5226 27.803 18.4008 27.6814 18.2791C27.617 18.2147 27.5527 18.1503 27.4884 18.0858C27.4164 18.0136 27.3444 17.9416 27.2723 17.8695C27.2513 17.8484 27.2302 17.8272 27.2085 17.8055C27.1187 17.7158 27.0284 17.6282 26.9321 17.5454C26.7981 17.4299 26.6744 17.3041 26.5497 17.1786C26.5227 17.1516 26.4956 17.1245 26.4686 17.0974C26.4107 17.0395 26.3529 16.9815 26.2951 16.9235C26.2036 16.8316 26.1119 16.7398 26.0203 16.648C25.8092 16.4367 25.5983 16.2252 25.3874 16.0137C25.1939 15.8197 25.0005 15.6257 24.8069 15.4319C24.7159 15.3408 24.6251 15.2497 24.5342 15.1585C24.4776 15.1016 24.4208 15.0448 24.3641 14.988C24.3379 14.9618 24.3118 14.9356 24.2858 14.9094C24.1577 14.7806 24.0286 14.6556 23.8908 14.5373C23.7909 14.4492 23.6973 14.3544 23.6028 14.2605C23.5802 14.2381 23.5576 14.2156 23.5342 14.1925C23.4599 14.1188 23.3857 14.045 23.3115 13.9712C23.2857 13.9456 23.2599 13.9199 23.2341 13.8943C23.1268 13.7875 23.0195 13.6807 22.9123 13.5738C22.7598 13.4217 22.607 13.2698 22.454 13.1183C22.3457 13.0111 22.2377 12.9036 22.1299 12.7959C22.0658 12.7319 22.0016 12.668 21.9372 12.6044C21.3993 12.0728 21.0353 11.5602 21.0254 10.7744C21.0298 10.2124 21.2596 9.69539 21.6512 9.29312C22.0532 8.90063 22.5913 8.69692 23.1501 8.69537C23.4806 8.70051 23.807 8.78978 24.1012 8.93944C24.1278 8.95281 24.1543 8.96618 24.1817 8.97996C24.4915 9.15739 24.7287 9.42544 24.9732 9.68139C25.0264 9.73388 25.0793 9.78205 25.136 9.83035C25.2731 9.94988 25.4007 10.0785 25.5289 10.2074C25.5559 10.2345 25.583 10.2616 25.61 10.2887C25.6679 10.3466 25.7257 10.4046 25.7835 10.4626C25.875 10.5545 25.9666 10.6463 26.0583 10.7381C26.2693 10.9494 26.4803 11.1609 26.6912 11.3724C26.8846 11.5664 27.0781 11.7604 27.2717 11.9542C27.3626 12.0453 27.4535 12.1364 27.5443 12.2276C27.601 12.2845 27.6578 12.3413 27.7145 12.3981C27.7406 12.4243 27.7667 12.4505 27.7928 12.4767C27.9041 12.5885 28.0148 12.6998 28.1345 12.8026C28.268 12.9171 28.3907 13.0424 28.5146 13.167C28.5416 13.1941 28.5687 13.2211 28.5957 13.2482C28.6536 13.3062 28.7114 13.3641 28.7692 13.4222C28.8607 13.514 28.9524 13.6058 29.044 13.6976C29.2551 13.909 29.466 14.1205 29.6769 14.332C29.8704 14.526 30.0638 14.7199 30.2574 14.9138C30.3484 15.0048 30.4392 15.096 30.5301 15.1871C30.5868 15.244 30.6435 15.3009 30.7003 15.3577C30.7264 15.3838 30.7525 15.41 30.7785 15.4362C30.9091 15.5675 31.0407 15.6953 31.1812 15.8159C31.2348 15.8622 31.2854 15.911 31.3354 15.9611C31.3542 15.98 31.3731 15.9989 31.3925 16.0183C31.4121 16.038 31.4316 16.0577 31.4517 16.0779C31.4724 16.0986 31.493 16.1193 31.5143 16.1406C31.5794 16.2059 31.6445 16.2713 31.7096 16.3367C31.754 16.3813 31.7985 16.4258 31.843 16.4704C31.9513 16.5791 32.0597 16.6878 32.1679 16.7966C32.3492 16.616 32.5146 16.4246 32.6758 16.2259C32.727 16.1627 32.7786 16.1 32.8304 16.0374C32.9878 15.8474 33.1433 15.6564 33.2948 15.4616C33.3751 15.3589 33.4581 15.2588 33.5429 15.1597C33.6798 14.9997 33.81 14.8351 33.9393 14.6688C33.998 14.5933 34.0568 14.518 34.1158 14.4428C34.1276 14.4278 34.1393 14.4128 34.1514 14.3974C34.2446 14.2788 34.3396 14.1618 34.435 14.045C34.5599 13.892 34.6817 13.7372 34.8015 13.5802C34.8679 13.4933 34.9354 13.4073 35.003 13.3215C35.1149 13.1795 35.2261 13.037 35.337 12.8942C35.4571 12.7396 35.5777 12.5853 35.6988 12.4314C35.7969 12.3067 35.8944 12.1814 35.9917 12.0561C36.1119 11.9015 36.2324 11.7472 36.3536 11.5933C36.4517 11.4686 36.5491 11.3433 36.6465 11.218C36.7914 11.0315 36.937 10.8454 37.0832 10.6598C37.1308 10.5994 37.1783 10.5389 37.2258 10.4784C37.2499 10.4477 37.274 10.417 37.2981 10.3863C37.3576 10.3107 37.417 10.235 37.4762 10.1592C37.6181 9.97764 37.7621 9.79802 37.9078 9.61956C37.9884 9.52074 38.068 9.42129 38.1463 9.32072C38.1932 9.26054 38.2404 9.20063 38.2878 9.1408C38.3111 9.11122 38.3344 9.08158 38.3576 9.05187C39.0816 8.13057 40.3321 7.91755 41.3051 8.59927Z" fill="#E63F3A"/>
<path d="M51.9593 0.000237593C51.9902 0.000160311 52.0211 8.3029e-05 52.0529 3.40532e-06C52.4583 -0.000225902 52.8592 0.0110529 53.2623 0.0558927C53.2819 0.0580605 53.3016 0.0602284 53.3218 0.0624619C53.5806 0.0918773 53.834 0.138597 54.0889 0.191757C54.1356 0.200596 54.1824 0.209278 54.2292 0.217743C55.073 0.371023 55.8976 0.629138 56.6818 0.977476C56.7084 0.989212 56.735 1.00095 56.7625 1.01304C57.9533 1.54094 59.021 2.24764 59.9818 3.12511C60.0068 3.14773 60.0319 3.17035 60.0577 3.19365C60.2903 3.40423 60.5185 3.6193 60.7223 3.85834C60.7732 3.91744 60.826 3.97457 60.8788 4.03196C61.0126 4.18024 61.1347 4.33654 61.2565 4.49462C61.2876 4.53467 61.3194 4.57421 61.3513 4.61368C62.7744 6.39872 63.6827 8.75996 63.9546 11.1715C63.9627 11.2434 63.9721 11.315 63.982 11.3867C64.0317 11.754 64.0594 12.1218 64.0839 12.4915C64.0855 12.516 64.0872 12.5406 64.0889 12.5658C64.1001 12.7363 64.1102 12.9069 64.1199 13.0775C64.1218 13.1093 64.1218 13.1093 64.1237 13.1418C64.1514 13.627 64.1496 14.112 64.1488 14.5978C64.1486 14.7151 64.1486 14.8324 64.1486 14.9497C64.1485 15.1708 64.1483 15.3919 64.148 15.613C64.1477 15.8652 64.1476 16.1173 64.1474 16.3695C64.1472 16.8873 64.1467 17.405 64.1461 17.9228C64.2047 17.8769 64.2633 17.8309 64.3219 17.7849C64.3384 17.772 64.3549 17.7591 64.3719 17.7458C64.4946 17.6494 64.6156 17.5513 64.7354 17.4514C64.8844 17.3279 65.0348 17.2066 65.1875 17.0877C65.3043 16.9965 65.4194 16.9034 65.5342 16.8097C65.6636 16.7041 65.7937 16.5997 65.9254 16.4971C66.0632 16.3896 66.1985 16.2795 66.333 16.168C66.4821 16.0446 66.6326 15.9233 66.7852 15.8042C66.9729 15.6576 67.1569 15.5067 67.3414 15.3561C67.5557 15.1812 67.7705 15.0069 67.9886 14.8366C68.1238 14.7307 68.257 14.6223 68.3901 14.5137C68.5017 14.4227 68.6143 14.3332 68.7278 14.2447C68.8656 14.1372 69.0009 14.0271 69.1354 13.9156C69.2844 13.7923 69.4347 13.671 69.5873 13.5521C69.7063 13.4592 69.8237 13.3644 69.9408 13.2691C69.9586 13.2546 69.9765 13.24 69.9948 13.2251C70.0689 13.1649 70.1428 13.1045 70.2165 13.0439C70.7947 12.5725 71.327 12.3395 72.0819 12.3966C72.6547 12.4785 73.1641 12.7695 73.5118 13.2314C73.7231 13.529 73.8703 13.8904 73.889 14.2561C73.8904 14.283 73.8918 14.3099 73.8932 14.3377C73.909 14.9435 73.7093 15.5108 73.2901 15.9535C73.2717 15.9724 73.2533 15.9914 73.2343 16.0109C73.2131 16.034 73.2131 16.034 73.1915 16.0577C73.069 16.1879 72.9269 16.2941 72.7858 16.4031C72.6807 16.4846 72.5777 16.5684 72.4747 16.6526C72.3454 16.7582 72.2152 16.8626 72.0835 16.9652C71.9457 17.0727 71.8105 17.1828 71.6759 17.2942C71.5269 17.4177 71.3765 17.539 71.2238 17.6579C71.107 17.7491 70.9919 17.8422 70.8771 17.9359C70.7273 18.0582 70.5764 18.1788 70.4238 18.2976C70.2492 18.4189 70.2492 18.4189 70.1176 18.5776C70.1357 18.5843 70.1538 18.5911 70.1725 18.598C70.5659 18.7632 70.918 19.0402 71.2438 19.3109C71.2702 19.3325 71.2966 19.3541 71.3239 19.3763C71.6966 19.6848 72.0482 20.0274 72.3438 20.4109C72.367 20.4391 72.3903 20.4673 72.4137 20.4953C73.3451 21.6207 73.9306 22.962 74.324 24.358C74.5702 25.2267 74.8752 26.2133 75.5458 26.8583C75.5914 26.9062 75.5914 26.9062 75.5914 26.9586C75.6141 26.9686 75.6141 26.9686 75.6371 26.9787C75.7027 27.0146 75.7485 27.0561 75.8026 27.1075C76.1378 27.4101 76.5422 27.5962 76.9795 27.6919C76.9989 27.6965 77.0182 27.7012 77.0381 27.7059C77.4791 27.805 77.9639 27.7741 78.3938 27.6395C78.4115 27.6341 78.4293 27.6286 78.4475 27.623C79.1249 27.4068 79.7234 26.9481 80.1486 26.3824C80.1777 26.3441 80.1777 26.3441 80.2074 26.3049C80.3324 26.1366 80.4441 25.9621 80.5529 25.783C80.8771 25.2513 81.2322 24.8569 81.8248 24.6276C81.8508 24.6168 81.8768 24.606 81.9037 24.5949C82.1135 24.5206 82.3141 24.5129 82.5352 24.5114C82.5636 24.5111 82.592 24.5109 82.6213 24.5106C83.1844 24.5167 83.6766 24.7717 84.0681 25.1665C84.4931 25.616 84.6181 26.1441 84.6098 26.742C84.5719 27.7612 83.684 28.8046 83.0296 29.5253C83.0147 29.5417 82.9998 29.5582 82.9845 29.5752C82.1942 30.4486 81.2209 31.0927 80.1224 31.5158C80.0999 31.5245 80.0774 31.5332 80.0543 31.5422C79.5463 31.7374 79.0114 31.8626 78.4724 31.9348C78.4434 31.9389 78.4434 31.9389 78.4138 31.943C77.8742 32.0157 77.3138 32.0223 76.7747 31.9429C76.7135 31.9342 76.6522 31.9272 76.5908 31.9203C75.4264 31.7822 74.2957 31.2781 73.3652 30.5729C73.3502 30.5616 73.3351 30.5503 73.3196 30.5387C72.8083 30.1527 72.3123 29.6953 71.9247 29.1848C71.9043 29.1593 71.8839 29.1337 71.8628 29.1074C71.5148 28.6706 71.2106 28.1836 70.9999 27.6657C70.992 27.6465 70.9841 27.6273 70.976 27.6075C70.9063 27.4288 70.8577 27.2446 70.8073 27.0597C70.5656 26.1749 70.2797 25.3099 69.908 24.4705C69.8985 24.4488 69.889 24.4272 69.8792 24.4049C69.4512 23.4392 68.7818 22.526 67.767 22.1313C67.2251 21.9338 66.5955 21.8911 66.058 22.1133C66.0327 22.1232 66.0327 22.1232 66.0069 22.1333C65.475 22.3414 65.0076 22.6713 64.5521 23.0103C64.5354 23.0227 64.5188 23.035 64.5017 23.0477C64.4702 23.0714 64.439 23.0955 64.4081 23.12C64.3732 23.1473 64.3375 23.1737 64.3012 23.1991C64.1901 23.2832 64.1901 23.2832 64.127 23.4039C64.1199 23.4741 64.1193 23.5416 64.1212 23.6121C64.1209 23.6516 64.1209 23.6516 64.1207 23.6918C64.1204 23.7785 64.1215 23.8651 64.1227 23.9518C64.1227 24.0124 64.1226 24.0729 64.1224 24.1335C64.1221 24.293 64.123 24.4524 64.1242 24.6118C64.1259 24.8664 64.126 25.121 64.1258 25.3756C64.1259 25.4641 64.1267 25.5526 64.1274 25.6411C64.1288 25.9167 64.1265 26.1701 64.0413 26.4348C64.0315 26.4667 64.0216 26.4986 64.0115 26.5315C63.78 27.1304 63.3874 27.5366 62.8052 27.8021C62.3676 27.9951 61.7771 28.0031 61.3308 27.8372C61.0726 27.7233 60.8477 27.5919 60.6366 27.4038C60.6167 27.3864 60.5968 27.369 60.5763 27.351C60.122 26.9273 59.9265 26.3184 59.9002 25.7102C59.8952 25.516 59.8959 25.3217 59.8963 25.1275C59.8962 25.0626 59.8961 24.9977 59.8961 24.9328C59.8959 24.7756 59.8961 24.6185 59.8964 24.4614C59.8966 24.3326 59.8968 24.2039 59.8968 24.0751C59.8976 22.966 59.9088 21.8571 59.9278 20.7481C59.9281 20.7308 59.9284 20.7135 59.9287 20.6957C59.9343 20.3694 59.94 20.0431 59.9458 19.7169C59.9749 18.074 59.9853 16.4311 59.9879 14.788C59.9882 14.6278 59.9887 14.4675 59.9892 14.3073C59.9899 14.1103 59.9903 13.9133 59.9903 13.7162C59.9903 13.6145 59.9904 13.5127 59.9909 13.411C59.993 12.9458 59.9748 12.4897 59.9132 12.0279C59.8998 11.9251 59.8883 11.8222 59.8768 11.7192C59.8377 11.3808 59.764 11.0511 59.6858 10.7198C59.6702 10.6534 59.6552 10.5868 59.6405 10.5202C59.3406 9.16866 58.7628 7.85051 57.8604 6.7918C57.8365 6.7631 57.8127 6.73438 57.7888 6.70565C57.5168 6.38002 57.2248 6.08559 56.8913 5.82274C56.8698 5.80438 56.8482 5.78601 56.826 5.76709C56.6083 5.58181 56.3726 5.42611 56.1318 5.27274C56.1142 5.2615 56.0966 5.25026 56.0784 5.23867C55.4269 4.82774 54.7035 4.52149 53.958 4.32988C53.9119 4.31717 53.9119 4.31717 53.865 4.3042C52.8481 4.0331 51.7751 3.99861 50.7365 4.14654C50.7143 4.14962 50.6921 4.1527 50.6692 4.15587C50.5336 4.17504 50.3993 4.19837 50.2651 4.22511C50.2455 4.22894 50.2259 4.23276 50.2058 4.2367C48.8556 4.50859 47.5479 5.14838 46.4936 6.03227C46.4658 6.05513 46.4379 6.07798 46.41 6.10081C46.0763 6.37656 45.7438 6.67164 45.4607 6.99968C45.13 7.37939 44.7425 7.65735 44.2412 7.76085C43.8378 7.78803 43.4355 7.80095 43.0626 7.6299C43.0328 7.61629 43.0029 7.60268 42.9721 7.58867C42.4483 7.32708 42.1039 6.89427 41.9093 6.34993C41.7574 5.85709 41.8013 5.33702 42.0199 4.87333C42.2756 4.39645 42.683 4.02672 43.061 3.64728C43.0738 3.63437 43.0867 3.62146 43.0999 3.60816C43.2486 3.45883 43.3995 3.31383 43.5603 3.17749C43.5867 3.15452 43.6131 3.13153 43.6396 3.10853C43.8682 2.91275 44.1051 2.72934 44.346 2.54891C44.3631 2.53607 44.3802 2.52323 44.3978 2.51C45.0556 2.01735 45.7587 1.60644 46.4936 1.23938C46.5159 1.22812 46.5383 1.21685 46.5613 1.20525C47.267 0.850686 48.0212 0.583979 48.7879 0.396908C48.8507 0.381521 48.9135 0.365859 48.9762 0.35C49.4301 0.235254 49.882 0.145664 50.3469 0.088631C50.3685 0.0859678 50.3901 0.0833046 50.4123 0.0805607C50.928 0.0180316 51.44 0.00138504 51.9593 0.000237593Z" fill="#E63F3A"/>
<path d="M50.1868 13.6014C50.2222 13.6088 50.2222 13.6088 50.2583 13.6162C51.605 13.8987 53.4204 14.5022 54.4035 15.4872C54.4197 15.5015 54.4358 15.5158 54.4525 15.5305C54.8119 15.8572 55.011 16.3902 55.0422 16.8679C55.0566 17.2582 54.9818 17.6293 54.7964 17.9753C54.7835 18.0005 54.7706 18.0257 54.7574 18.0516C54.4783 18.5672 54.011 18.9115 53.4574 19.0867C52.9236 19.2413 52.3333 19.1645 51.8447 18.9071C51.7148 18.8355 51.5865 18.7614 51.4583 18.6871C51.291 18.5904 51.1203 18.503 50.9461 18.4195C50.8907 18.3927 50.8357 18.3652 50.7807 18.3375C50.4441 18.1707 50.0968 18.044 49.7416 17.9229C49.7174 17.9145 49.6933 17.906 49.6684 17.8973C49.0668 17.6872 48.4408 17.5554 47.8035 17.53C47.7623 17.5283 47.7623 17.5283 47.7203 17.5266C47.0035 17.5011 46.3086 17.5901 45.6558 17.8934C45.6333 17.9039 45.6107 17.9143 45.5875 17.9251C45.4279 18.0026 45.2952 18.099 45.1582 18.211C45.1312 18.2304 45.1042 18.2499 45.0764 18.2699C44.9109 18.4282 44.7843 18.6355 44.7556 18.865C44.7499 19.13 44.809 19.3693 44.9749 19.5811C45.8242 20.4449 47.8075 20.5002 48.9506 20.661C49.1623 20.6911 49.3734 20.7263 49.5845 20.7607C49.6581 20.7727 49.7318 20.7845 49.8054 20.7962C50.3635 20.8849 50.9192 20.9833 51.4734 21.0936C51.5002 21.0989 51.5269 21.1042 51.5545 21.1096C52.076 21.2129 52.5948 21.331 53.1022 21.4914C53.1337 21.5013 53.1652 21.5112 53.1976 21.5214C54.3825 21.8996 55.4316 22.411 56.3416 23.2658C56.3582 23.281 56.3749 23.2962 56.392 23.3119C56.5513 23.4628 56.6824 23.6403 56.813 23.8158C56.8242 23.8308 56.8354 23.8458 56.8469 23.8612C57.1643 24.2933 57.3843 24.7915 57.5202 25.3087C57.5284 25.34 57.5367 25.3713 57.5451 25.4035C57.7806 26.4019 57.6832 27.508 57.2845 28.4515C57.2746 28.475 57.2648 28.4984 57.2546 28.5225C57.0474 29.0045 56.7692 29.4234 56.4202 29.8134C56.3994 29.8374 56.3786 29.8614 56.3572 29.8861C56.2379 30.0221 56.1147 30.144 55.9749 30.2587C55.9622 30.2695 55.9495 30.2804 55.9364 30.2916C55.4113 30.7391 54.8105 31.0515 54.1742 31.3087C54.1374 31.3236 54.1006 31.3387 54.0639 31.354C53.5563 31.5656 53.0057 31.6827 52.4654 31.7777C52.4146 31.7868 52.4146 31.7868 52.3629 31.7961C52.0937 31.8433 51.8245 31.8787 51.5525 31.9056C51.4891 31.9119 51.4258 31.9186 51.3625 31.9254C50.6896 31.9946 50.0117 31.9922 49.336 31.9921C49.2515 31.9921 49.167 31.9923 49.0824 31.9927C48.5923 31.9947 48.108 31.9887 47.6201 31.9349C47.5858 31.9313 47.5515 31.9277 47.5161 31.9241C47.4355 31.9153 47.3551 31.9057 47.2747 31.8956C47.2492 31.8925 47.2237 31.8895 47.1973 31.8863C45.0623 31.6245 42.9657 30.8952 41.1248 29.7873C41.1005 29.7727 41.0763 29.7582 41.0512 29.7432C40.7231 29.5465 40.4094 29.3359 40.1034 29.1063C40.0791 29.0882 40.0791 29.0882 40.0543 29.0698C39.8119 28.8891 39.5783 28.6975 39.3701 28.4777C39.3584 28.4659 39.3468 28.4542 39.3348 28.442C38.9066 27.9818 38.8229 27.4034 38.8418 26.8005C38.8726 26.265 39.1525 25.769 39.537 25.4052C39.6733 25.2868 39.815 25.1873 39.9725 25.0991C40.004 25.0815 40.004 25.0815 40.0362 25.0634C40.5668 24.796 41.1278 24.7754 41.6895 24.9437C42.0541 25.0647 42.3281 25.2652 42.6254 25.5002C44.0529 26.625 45.7587 27.3803 47.5546 27.6609C47.587 27.666 47.6194 27.6711 47.6528 27.6764C47.7553 27.6916 47.8578 27.7054 47.9606 27.7182C47.9795 27.7206 47.9985 27.7231 48.018 27.7256C48.4496 27.7795 48.8819 27.78 49.3161 27.7789C49.3756 27.7788 49.4351 27.7787 49.4946 27.7786C51.3566 27.8315 51.3566 27.8315 52.9817 27.1248C53.1571 26.9362 53.1874 26.7545 53.182 26.5C53.1641 26.3268 53.1123 26.1906 52.9892 26.0682C52.9892 26.0509 52.9892 26.0336 52.9892 26.0158C52.9741 26.0087 52.9589 26.0016 52.9434 25.9943C52.8844 25.9634 52.8338 25.9281 52.78 25.8891C52.6388 25.7941 52.4899 25.74 52.3295 25.6851C52.3004 25.675 52.2713 25.6648 52.2413 25.6543C52.0382 25.5839 51.8351 25.5206 51.6273 25.4658C51.5908 25.4559 51.5544 25.446 51.5179 25.4361C51.2347 25.3597 50.9509 25.2934 50.6631 25.2366C50.6415 25.2323 50.6198 25.228 50.5975 25.2236C49.6832 25.0422 48.7605 24.9034 47.8399 24.7578C47.0473 24.6323 46.2577 24.5025 45.4785 24.3081C45.3916 24.2867 45.3046 24.2661 45.2174 24.2457C43.6515 23.874 42.1304 23.221 41.2387 21.8146C40.7987 21.0997 40.5363 20.357 40.5388 19.5107C40.5388 19.4923 40.5389 19.4739 40.5389 19.4549C40.5443 17.9097 41.073 16.4257 42.1463 15.3038C42.1599 15.2894 42.1735 15.2749 42.1875 15.2601C43.9337 13.4105 46.8417 13.071 50.1868 13.6014Z" fill="#E63F3A"/>
</svg>
