<svg width="365" height="96" viewBox="0 0 365 96" fill="none" xmlns="http://www.w3.org/2000/svg">
<path d="M55.3386 8.24339L46.897 5.98145L39.7832 32.5308L33.3607 8.56186L24.9189 10.8238L31.858 36.7204L14.5743 19.4368L8.39457 25.6165L27.3526 44.5747L3.74338 38.2486L1.48145 46.6902L27.2775 53.6023C26.9822 52.3284 26.8259 51.0011 26.8259 49.6373C26.8259 39.9839 34.6515 32.1584 44.3049 32.1584C53.9582 32.1584 61.7838 39.9839 61.7838 49.6373C61.7838 50.9923 61.6295 52.3115 61.3378 53.5778L84.7816 59.8595L87.0435 51.4179L61.1448 44.4784L84.7557 38.1518L82.4936 29.7103L56.5961 36.6494L73.8797 19.3659L67.7 13.1861L49.0049 31.8813L55.3386 8.24339Z" fill="#FF4405"/>
<path d="M61.3131 53.6761C60.5894 56.7359 59.0614 59.4847 56.9648 61.6871L73.9488 78.6713L80.1286 72.4916L61.3131 53.6761Z" fill="#FF4405"/>
<path d="M56.7934 61.8647C54.6715 64.0318 51.9901 65.6491 48.9831 66.4825L55.1632 89.5471L63.6048 87.2851L56.7934 61.8647Z" fill="#FF4405"/>
<path d="M48.6678 66.5669C47.2726 66.9256 45.8103 67.1161 44.3034 67.1161C42.6889 67.1161 41.1255 66.8972 39.6413 66.4875L33.4556 89.5731L41.8971 91.8349L48.6678 66.5669Z" fill="#FF4405"/>
<path d="M39.3428 66.4024C36.3817 65.5275 33.748 63.8897 31.6695 61.7163L14.6436 78.7421L20.8234 84.9219L39.3428 66.4024Z" fill="#FF4405"/>
<path d="M31.5292 61.5658C29.4863 59.3787 27.9982 56.6665 27.2899 53.6539L3.76953 59.9562L6.03145 68.3978L31.5292 61.5658Z" fill="#FF4405"/>
<path d="M137.84 25.8184V56.2384L118.34 25.8184H110.54V67.8184H118.34V37.6384L137.84 67.8184H145.64V25.8184H137.84Z" fill="#101828"/>
<path d="M149.154 33.6784H157.194V25.8184H149.154V33.6784ZM149.274 67.8184V37.8184H157.074V67.8184H149.274Z" fill="#101828"/>
<path d="M190.635 52.8184C190.635 42.4384 183.255 37.5184 175.455 37.4584C167.595 37.3984 160.335 42.4384 160.335 52.8184C160.335 63.1984 167.595 68.2384 175.455 68.1784C182.595 68.1184 187.515 64.8184 189.795 59.3584L183.735 56.8384C181.875 60.5584 178.935 61.8784 175.455 61.9384C172.455 61.9984 169.035 60.5584 168.315 55.2184H190.455C190.575 54.4384 190.635 53.6584 190.635 52.8184ZM175.455 43.6384C178.455 43.6984 181.515 45.3184 182.475 49.6384H168.435C169.455 45.2584 172.515 43.5784 175.455 43.6384Z" fill="#101828"/>
<path d="M208.661 43.3984V37.4584H203.741V29.4184L195.941 31.8184V37.4584H191.021V43.3984H195.941V58.9384C195.941 64.8184 196.421 67.8184 205.541 67.8184H207.641V60.9784H205.541C204.101 60.9784 203.741 60.7384 203.741 58.9384V43.3984H208.661Z" fill="#101828"/>
<path d="M220.251 61.2784L236.811 44.3584V37.8184H211.971V44.3584H228.051L211.491 61.2784V67.8184H236.991V61.2784H220.251Z" fill="#101828"/>
<path d="M239.788 59.3584L247.648 58.1584C248.188 61.1584 251.728 62.2984 253.888 62.2984C256.108 62.2984 259.948 61.8184 259.948 58.2184C259.948 51.1984 240.688 59.9584 240.688 46.5184C240.688 37.8784 250.708 37.3984 253.888 37.3984C256.888 37.3984 265.588 37.8784 267.388 44.8384L259.948 46.3984C259.288 43.2184 255.928 42.6184 254.128 42.6184C252.328 42.6184 248.488 43.0384 248.488 46.5184C248.488 53.4784 267.748 44.5984 267.748 58.2184C267.748 67.3984 257.188 68.1784 253.888 68.1784C250.888 68.1784 241.348 67.3984 239.788 59.3584Z" fill="#101828"/>
<path d="M277.881 52.8184C277.881 60.1384 281.781 62.3584 285.861 62.2984C289.521 62.2384 292.041 60.7384 293.541 56.5384L299.961 59.6584C297.621 65.7784 291.921 68.1184 285.861 68.1784C278.001 68.2384 270.081 63.1984 270.081 52.8184C270.081 42.4384 278.001 37.3984 285.861 37.4584C291.921 37.5184 297.621 39.8584 299.961 45.9784L293.541 49.0984C292.041 44.8984 289.521 43.3984 285.861 43.3384C281.781 43.2784 277.881 45.4984 277.881 52.8184Z" fill="#101828"/>
<path d="M320.9 37.3384C316.88 37.3384 313.22 39.4384 310.88 43.9384V25.8184H303.08V67.8184H310.88V57.1984C310.88 43.4584 316.58 42.3184 318.68 42.3184C322.04 42.3184 322.52 45.7984 322.52 50.8984V67.8184H330.32V50.8984C330.32 44.5384 329.3 37.3384 320.9 37.3384Z" fill="#101828"/>
<path d="M363.252 52.8184C363.252 42.4384 355.872 37.5184 348.072 37.4584C340.212 37.3984 332.952 42.4384 332.952 52.8184C332.952 63.1984 340.212 68.2384 348.072 68.1784C355.212 68.1184 360.132 64.8184 362.412 59.3584L356.352 56.8384C354.492 60.5584 351.552 61.8784 348.072 61.9384C345.072 61.9984 341.652 60.5584 340.932 55.2184H363.072C363.192 54.4384 363.252 53.6584 363.252 52.8184ZM348.072 43.6384C351.072 43.6984 354.132 45.3184 355.092 49.6384H341.052C342.072 45.2584 345.132 43.5784 348.072 43.6384Z" fill="#101828"/>
</svg>
