<svg width="169" height="48" viewBox="0 0 169 48" fill="none" xmlns="http://www.w3.org/2000/svg">
<rect y="19.2002" width="9.59998" height="9.59999" fill="#039855"/>
<rect x="28.8" y="28.7998" width="9.6" height="9.59999" transform="rotate(180 28.8 28.7998)" fill="#027A48"/>
<path d="M9.6001 19.1996L19.2001 9.59961V19.1996L9.6001 28.7996V19.1996Z" fill="#A6F4C5"/>
<path d="M19.2 28.8004L9.6 38.4004L9.6 28.8004L19.2 19.2004L19.2 28.8004Z" fill="#6CE9A6"/>
<path d="M0 19.2L19.2 0V9.59999L9.59998 19.2H0Z" fill="#32D583"/>
<path d="M28.8 28.8L9.59998 48L9.59998 38.4L19.2 28.8L28.8 28.8Z" fill="#12B76A"/>
<path d="M49.708 34.2798C48.196 34.2798 46.7307 34.0651 45.312 33.6358C43.912 33.2065 42.8013 32.6371 41.98 31.9278L43.24 29.0998C44.0427 29.7345 45.0227 30.2571 46.18 30.6678C47.356 31.0598 48.532 31.2558 49.708 31.2558C51.164 31.2558 52.2467 31.0225 52.956 30.5558C53.684 30.0891 54.048 29.4731 54.048 28.7078C54.048 28.1478 53.8427 27.6905 53.432 27.3358C53.04 26.9625 52.536 26.6731 51.92 26.4678C51.304 26.2625 50.464 26.0291 49.4 25.7678C47.9067 25.4131 46.6933 25.0585 45.76 24.7038C44.8453 24.3491 44.052 23.7985 43.38 23.0518C42.7267 22.2865 42.4 21.2598 42.4 19.9718C42.4 18.8891 42.6893 17.9091 43.268 17.0318C43.8653 16.1358 44.752 15.4265 45.928 14.9038C47.1227 14.3811 48.5787 14.1198 50.296 14.1198C51.4907 14.1198 52.6667 14.2691 53.824 14.5678C54.9813 14.8665 55.98 15.2958 56.82 15.8558L55.672 18.6838C54.8133 18.1798 53.9173 17.7971 52.984 17.5358C52.0507 17.2745 51.1453 17.1438 50.268 17.1438C48.8307 17.1438 47.7573 17.3865 47.048 17.8718C46.3573 18.3571 46.012 19.0011 46.012 19.8038C46.012 20.3638 46.208 20.8211 46.6 21.1758C47.0107 21.5305 47.524 21.8105 48.14 22.0158C48.756 22.2211 49.596 22.4545 50.66 22.7158C52.116 23.0518 53.3107 23.4065 54.244 23.7798C55.1773 24.1345 55.9707 24.6851 56.624 25.4318C57.296 26.1785 57.632 27.1865 57.632 28.4558C57.632 29.5385 57.3333 30.5185 56.736 31.3958C56.1573 32.2731 55.2707 32.9731 54.076 33.4958C52.8813 34.0185 51.4253 34.2798 49.708 34.2798Z" fill="#101828"/>
<path d="M60.9054 19.0478H64.4054V33.9998H60.9054V19.0478ZM62.6694 16.5838C62.0347 16.5838 61.5027 16.3878 61.0734 15.9958C60.644 15.5851 60.4294 15.0811 60.4294 14.4838C60.4294 13.8865 60.644 13.3918 61.0734 12.9998C61.5027 12.5891 62.0347 12.3838 62.6694 12.3838C63.304 12.3838 63.836 12.5798 64.2654 12.9718C64.6947 13.3451 64.9094 13.8211 64.9094 14.3998C64.9094 15.0158 64.6947 15.5385 64.2654 15.9678C63.8547 16.3785 63.3227 16.5838 62.6694 16.5838Z" fill="#101828"/>
<path d="M73.6191 34.1958C72.4058 34.1958 71.2204 34.0371 70.0631 33.7198C68.9058 33.4025 67.9818 33.0011 67.2911 32.5158L68.6351 29.8558C69.3071 30.3038 70.1098 30.6678 71.0431 30.9478C71.9951 31.2091 72.9284 31.3398 73.8431 31.3398C75.9338 31.3398 76.9791 30.7891 76.9791 29.6878C76.9791 29.1651 76.7084 28.8011 76.1671 28.5958C75.6444 28.3905 74.7951 28.1945 73.6191 28.0078C72.3871 27.8211 71.3791 27.6065 70.5951 27.3638C69.8298 27.1211 69.1578 26.7011 68.5791 26.1038C68.0191 25.4878 67.7391 24.6385 67.7391 23.5558C67.7391 22.1371 68.3271 21.0078 69.5031 20.1678C70.6978 19.3091 72.3031 18.8798 74.3191 18.8798C75.3458 18.8798 76.3724 19.0011 77.3991 19.2438C78.4258 19.4678 79.2658 19.7758 79.9191 20.1678L78.5751 22.8278C77.3058 22.0811 75.8778 21.7078 74.2911 21.7078C73.2644 21.7078 72.4804 21.8665 71.9391 22.1838C71.4164 22.4825 71.1551 22.8838 71.1551 23.3878C71.1551 23.9478 71.4351 24.3491 71.9951 24.5918C72.5738 24.8158 73.4604 25.0305 74.6551 25.2358C75.8498 25.4225 76.8298 25.6371 77.5951 25.8798C78.3604 26.1225 79.0138 26.5331 79.5551 27.1118C80.1151 27.6905 80.3951 28.5118 80.3951 29.5758C80.3951 30.9758 79.7884 32.0958 78.5751 32.9358C77.3618 33.7758 75.7098 34.1958 73.6191 34.1958Z" fill="#101828"/>
<path d="M97.1358 19.0478L90.1358 35.2038C89.4825 36.8278 88.6892 37.9665 87.7558 38.6198C86.8225 39.2918 85.6932 39.6278 84.3678 39.6278C83.6212 39.6278 82.8838 39.5065 82.1558 39.2638C81.4278 39.0211 80.8305 38.6851 80.3638 38.2558L81.7638 35.6798C82.0998 35.9971 82.4918 36.2491 82.9398 36.4358C83.4065 36.6225 83.8732 36.7158 84.3398 36.7158C84.9558 36.7158 85.4598 36.5571 85.8518 36.2398C86.2625 35.9225 86.6358 35.3905 86.9718 34.6438L87.2238 34.0558L80.6998 19.0478H84.3398L89.0438 30.1078L93.7758 19.0478H97.1358Z" fill="#101828"/>
<path d="M107.611 18.8798C109.067 18.8798 110.365 19.1971 111.503 19.8318C112.661 20.4665 113.566 21.3625 114.219 22.5198C114.873 23.6771 115.199 25.0118 115.199 26.5238C115.199 28.0358 114.873 29.3798 114.219 30.5558C113.566 31.7131 112.661 32.6091 111.503 33.2438C110.365 33.8785 109.067 34.1958 107.611 34.1958C105.595 34.1958 103.999 33.5238 102.823 32.1798V39.4318H99.3233V19.0478H102.655V21.0078C103.234 20.2985 103.943 19.7665 104.783 19.4118C105.642 19.0571 106.585 18.8798 107.611 18.8798ZM107.219 31.1998C108.507 31.1998 109.562 30.7705 110.383 29.9118C111.223 29.0531 111.643 27.9238 111.643 26.5238C111.643 25.1238 111.223 23.9945 110.383 23.1358C109.562 22.2771 108.507 21.8478 107.219 21.8478C106.379 21.8478 105.623 22.0438 104.951 22.4358C104.279 22.8091 103.747 23.3505 103.355 24.0598C102.963 24.7691 102.767 25.5905 102.767 26.5238C102.767 27.4571 102.963 28.2785 103.355 28.9878C103.747 29.6971 104.279 30.2478 104.951 30.6398C105.623 31.0131 106.379 31.1998 107.219 31.1998Z" fill="#101828"/>
<path d="M127.003 18.8798C128.888 18.8798 130.4 19.4305 131.539 20.5318C132.677 21.6331 133.247 23.2665 133.247 25.4318V33.9998H129.747V25.8798C129.747 24.5731 129.439 23.5931 128.823 22.9398C128.207 22.2678 127.329 21.9318 126.191 21.9318C124.903 21.9318 123.885 22.3238 123.139 23.1078C122.392 23.8731 122.019 24.9838 122.019 26.4398V33.9998H118.519V13.2238H122.019V20.7838C122.597 20.1678 123.307 19.7011 124.147 19.3838C125.005 19.0478 125.957 18.8798 127.003 18.8798Z" fill="#101828"/>
<path d="M152.163 19.0478V33.9998H148.831V32.0958C148.271 32.7678 147.571 33.2905 146.731 33.6638C145.891 34.0185 144.985 34.1958 144.015 34.1958C142.017 34.1958 140.44 33.6451 139.283 32.5438C138.144 31.4238 137.575 29.7718 137.575 27.5878V19.0478H141.075V27.1118C141.075 28.4558 141.373 29.4638 141.971 30.1358C142.587 30.7891 143.455 31.1158 144.575 31.1158C145.825 31.1158 146.815 30.7331 147.543 29.9678C148.289 29.1838 148.663 28.0638 148.663 26.6078V19.0478H152.163Z" fill="#101828"/>
<path d="M161.365 34.1958C160.152 34.1958 158.966 34.0371 157.809 33.7198C156.652 33.4025 155.728 33.0011 155.037 32.5158L156.381 29.8558C157.053 30.3038 157.856 30.6678 158.789 30.9478C159.741 31.2091 160.674 31.3398 161.589 31.3398C163.68 31.3398 164.725 30.7891 164.725 29.6878C164.725 29.1651 164.454 28.8011 163.913 28.5958C163.39 28.3905 162.541 28.1945 161.365 28.0078C160.133 27.8211 159.125 27.6065 158.341 27.3638C157.576 27.1211 156.904 26.7011 156.325 26.1038C155.765 25.4878 155.485 24.6385 155.485 23.5558C155.485 22.1371 156.073 21.0078 157.249 20.1678C158.444 19.3091 160.049 18.8798 162.065 18.8798C163.092 18.8798 164.118 19.0011 165.145 19.2438C166.172 19.4678 167.012 19.7758 167.665 20.1678L166.321 22.8278C165.052 22.0811 163.624 21.7078 162.037 21.7078C161.01 21.7078 160.226 21.8665 159.685 22.1838C159.162 22.4825 158.901 22.8838 158.901 23.3878C158.901 23.9478 159.181 24.3491 159.741 24.5918C160.32 24.8158 161.206 25.0305 162.401 25.2358C163.596 25.4225 164.576 25.6371 165.341 25.8798C166.106 26.1225 166.76 26.5331 167.301 27.1118C167.861 27.6905 168.141 28.5118 168.141 29.5758C168.141 30.9758 167.534 32.0958 166.321 32.9358C165.108 33.7758 163.456 34.1958 161.365 34.1958Z" fill="#101828"/>
</svg>
