<svg width="395" height="96" viewBox="0 0 395 96" fill="none" xmlns="http://www.w3.org/2000/svg">
<path d="M61.2578 4H27.5421L0.399902 31.1421V64.8578L27.5421 92H61.2578L88.3999 64.8578V31.1421L61.2578 4ZM32.2071 65.2819L14.8192 47.8939L32.2071 30.506C38.7806 23.9325 49.5951 23.9325 56.1686 30.506L73.5565 47.8939L56.1686 65.2819C49.5951 71.8554 38.9927 71.8554 32.2071 65.2819Z" fill="#444CE7"/>
<path d="M127.08 68.4801C132.48 68.4801 136.92 65.7201 138.3 61.5801V68.0001H146.28V51.8001C146.28 48.1401 143.4 45.0201 139.5 45.0201H128.1V51.8001H136.2C137.22 51.8001 137.88 52.4601 137.88 53.4801C137.88 57.3801 132.72 61.1601 127.5 61.1601C120.54 61.1601 115.02 55.7001 115.02 47.0001C115.02 38.3001 120.54 33.2601 127.68 33.2601C133.08 33.2601 136.8 36.2001 137.46 40.7001H146.4C145.86 31.7001 138.3 25.5201 127.74 25.5201C116.64 25.5201 106.44 32.6601 106.44 47.0001C106.44 61.3401 116.34 68.4801 127.08 68.4801Z" fill="#101828"/>
<path d="M149.706 68.0001H158.046V24.6201H149.706V68.0001Z" fill="#101828"/>
<path d="M176.036 68.4801C185.336 68.4801 191.996 61.8801 191.996 52.8801C191.996 43.8801 185.336 37.2801 176.036 37.2801C166.736 37.2801 160.076 43.8801 160.076 52.8801C160.076 61.8801 166.736 68.4801 176.036 68.4801ZM176.036 61.2801C171.536 61.2801 168.476 57.8601 168.476 52.8801C168.476 47.8401 171.536 44.4201 176.036 44.4201C180.536 44.4201 183.596 47.8401 183.596 52.8801C183.596 57.8601 180.536 61.2801 176.036 61.2801Z" fill="#101828"/>
<path d="M210.658 68.4801C219.598 68.4801 224.938 62.3001 224.938 52.8801C224.938 43.4601 219.598 37.2801 210.778 37.2801C206.998 37.2801 204.058 38.7201 202.378 40.9401V24.6201H194.038V68.0001H202.378V64.7001C204.058 67.0401 207.178 68.4801 210.658 68.4801ZM209.338 61.2801C204.838 61.2801 201.898 57.9201 201.898 52.8801C201.898 47.7801 204.838 44.4201 209.338 44.4201C213.718 44.4201 216.718 47.7801 216.718 52.8801C216.718 57.9201 213.718 61.2801 209.338 61.2801Z" fill="#101828"/>
<path d="M238.898 37.2801C230.618 37.2801 225.698 42.1401 225.338 48.2001H232.778C232.898 45.6801 234.758 43.4001 238.418 43.4001C241.838 43.4001 243.818 45.1401 243.818 47.6601C243.818 48.9201 243.038 49.8801 241.538 49.8801H236.438C229.838 49.8801 225.398 53.4801 225.398 59.4201C225.398 64.5801 229.418 68.4801 235.298 68.4801C239.438 68.4801 242.798 66.6201 243.818 63.8001V68.0001H252.098V48.5601C252.098 41.7201 246.518 37.2801 238.898 37.2801ZM237.398 62.4201C235.058 62.4201 233.378 61.0401 233.378 59.0601C233.378 56.7201 235.178 55.1601 237.698 55.1601H243.818V55.5801C243.818 59.4201 241.478 62.4201 237.398 62.4201Z" fill="#101828"/>
<path d="M255.303 68.0001H263.643V24.6201H255.303V68.0001Z" fill="#101828"/>
<path d="M268.073 68.0001H285.233C294.113 68.0001 300.233 63.4401 300.233 55.4601C300.233 49.9401 296.993 46.5801 293.153 45.0801C295.613 43.7601 298.073 40.7601 298.073 36.8001C298.073 29.7801 292.373 26.0001 284.753 26.0001H268.073V68.0001ZM276.953 42.0201V33.1401H283.913C287.933 33.1401 289.733 34.7601 289.733 37.5801C289.733 40.4001 287.933 42.0201 284.093 42.0201H276.953ZM276.953 60.2001V49.6401H284.453C289.433 49.6401 291.653 51.5601 291.653 54.9801C291.653 58.4001 289.433 60.2001 284.453 60.2001H276.953Z" fill="#101828"/>
<path d="M314.742 37.2801C306.462 37.2801 301.542 42.1401 301.182 48.2001H308.622C308.742 45.6801 310.602 43.4001 314.262 43.4001C317.682 43.4001 319.662 45.1401 319.662 47.6601C319.662 48.9201 318.882 49.8801 317.382 49.8801H312.282C305.682 49.8801 301.242 53.4801 301.242 59.4201C301.242 64.5801 305.262 68.4801 311.142 68.4801C315.282 68.4801 318.642 66.6201 319.662 63.8001V68.0001H327.942V48.5601C327.942 41.7201 322.362 37.2801 314.742 37.2801ZM313.242 62.4201C310.902 62.4201 309.222 61.0401 309.222 59.0601C309.222 56.7201 311.022 55.1601 313.542 55.1601H319.662V55.5801C319.662 59.4201 317.322 62.4201 313.242 62.4201Z" fill="#101828"/>
<path d="M330.667 68.0001H339.067V51.4401C339.067 47.5401 341.647 44.7201 345.307 44.7201C348.787 44.7201 351.127 47.3601 351.127 51.0201V68.0001H359.527V49.1601C359.527 42.2001 355.087 37.2801 348.247 37.2801C344.107 37.2801 340.747 39.0201 339.067 41.9601V37.7601H330.667V68.0001Z" fill="#101828"/>
<path d="M383.467 68.0001H393.547L380.527 49.6401L392.587 37.7601H382.027L371.527 48.0801V24.6201H363.127V68.0001H371.527V58.5201L374.887 55.2201L383.467 68.0001Z" fill="#101828"/>
</svg>
