<svg width="335" height="96" viewBox="0 0 335 96" fill="none" xmlns="http://www.w3.org/2000/svg">
<path fill-rule="evenodd" clip-rule="evenodd" d="M39.9309 6.89604C38.9208 6.6883 37.879 6.6883 36.8689 6.89604C35.7013 7.13618 34.6577 7.7207 33.8281 8.1854L33.6019 8.31173L5.48296 23.9334C5.40522 23.9766 5.32512 24.0207 5.24304 24.0659C4.36477 24.5497 3.26047 25.1579 2.41244 26.0781C1.67925 26.8737 1.12439 27.8167 0.784973 28.844C0.392383 30.0323 0.396976 31.293 0.400629 32.2956C0.40097 32.3894 0.401303 32.4808 0.401303 32.5697V63.4136C0.401303 63.5025 0.40097 63.594 0.400629 63.6877C0.396976 64.6904 0.392383 65.9511 0.784974 67.1393C1.1244 68.1666 1.67926 69.1096 2.41244 69.9052C3.26048 70.8254 4.36478 71.4337 5.24304 71.9174C5.32512 71.9626 5.40523 72.0068 5.48297 72.05L33.6019 87.6716L33.8281 87.7979C34.6578 88.2626 35.7014 88.8472 36.8689 89.0873C37.879 89.295 38.9208 89.295 39.9309 89.0873C41.0985 88.8471 42.1421 88.2626 42.9717 87.7979L43.1979 87.6716L71.3168 72.05C71.3512 72.0309 71.386 72.0116 71.4213 71.9921C71.4658 71.9676 71.511 71.9427 71.5567 71.9175C72.435 71.4337 73.5393 70.8255 74.3874 69.9052C75.1206 69.1096 75.6754 68.1666 76.0148 67.1393C76.4074 65.9511 76.4028 64.6904 76.3992 63.6877C76.3988 63.594 76.3985 63.5025 76.3985 63.4136V32.5697C76.3985 32.4808 76.3988 32.3894 76.3992 32.2957C76.4028 31.293 76.4074 30.0323 76.0148 28.844C75.6754 27.8167 75.1206 26.8737 74.3874 26.0781C73.5393 25.1579 72.435 24.5496 71.5567 24.0659L71.5537 24.0642C71.4727 24.0196 71.3936 23.976 71.3168 23.9334L43.1979 8.31173L42.9717 8.18539C42.1421 7.72069 41.0985 7.13618 39.9309 6.89604ZM37.2927 14.9551C37.8685 14.6352 38.1625 14.4735 38.3817 14.3678L38.3999 14.3591L38.4181 14.3678C38.6373 14.4735 38.9313 14.6352 39.5071 14.9551L64.7741 28.9923L38.3998 43.6447L12.0256 28.9923L37.2927 14.9551ZM8.00102 35.4502L34.5999 50.2274L34.6 79.5323L9.17372 65.4066C8.56592 65.0689 8.2556 64.8947 8.03789 64.756L8.0195 64.7442L8.01813 64.7224C8.0026 64.4648 8.00102 64.1089 8.00102 63.4136V35.4502Z" fill="#101828"/>
<path d="M110.982 60.6905H123.078V67.8185H101.748V29.9105H110.982V60.6905Z" fill="#101828"/>
<path d="M131.586 34.5545C129.966 34.5545 128.634 34.0865 127.59 33.1505C126.582 32.1785 126.078 30.9905 126.078 29.5865C126.078 28.1465 126.582 26.9585 127.59 26.0225C128.634 25.0505 129.966 24.5645 131.586 24.5645C133.17 24.5645 134.466 25.0505 135.474 26.0225C136.518 26.9585 137.04 28.1465 137.04 29.5865C137.04 30.9905 136.518 32.1785 135.474 33.1505C134.466 34.0865 133.17 34.5545 131.586 34.5545ZM136.176 37.6865V67.8185H126.942V37.6865H136.176Z" fill="#101828"/>
<path d="M153.776 37.2545C155.9 37.2545 157.754 37.6865 159.338 38.5505C160.958 39.4145 162.2 40.5485 163.064 41.9525V37.6865H172.298V67.7645C172.298 70.5365 171.74 73.0385 170.624 75.2705C169.544 77.5385 167.87 79.3385 165.602 80.6705C163.37 82.0025 160.58 82.6685 157.232 82.6685C152.768 82.6685 149.15 81.6065 146.378 79.4825C143.606 77.3945 142.022 74.5505 141.626 70.9505H150.752C151.04 72.1025 151.724 73.0025 152.804 73.6505C153.884 74.3345 155.216 74.6765 156.8 74.6765C158.708 74.6765 160.22 74.1185 161.336 73.0025C162.488 71.9225 163.064 70.1765 163.064 67.7645V63.4985C162.164 64.9025 160.922 66.0545 159.338 66.9545C157.754 67.8185 155.9 68.2505 153.776 68.2505C151.292 68.2505 149.042 67.6205 147.026 66.3605C145.01 65.0645 143.408 63.2465 142.22 60.9065C141.068 58.5305 140.492 55.7945 140.492 52.6985C140.492 49.6025 141.068 46.8845 142.22 44.5445C143.408 42.2045 145.01 40.4045 147.026 39.1445C149.042 37.8845 151.292 37.2545 153.776 37.2545ZM163.064 52.7525C163.064 50.4485 162.416 48.6305 161.12 47.2985C159.86 45.9665 158.312 45.3005 156.476 45.3005C154.64 45.3005 153.074 45.9665 151.778 47.2985C150.518 48.5945 149.888 50.3945 149.888 52.6985C149.888 55.0025 150.518 56.8385 151.778 58.2065C153.074 59.5385 154.64 60.2045 156.476 60.2045C158.312 60.2045 159.86 59.5385 161.12 58.2065C162.416 56.8745 163.064 55.0565 163.064 52.7525Z" fill="#101828"/>
<path d="M196.961 37.3625C200.417 37.3625 203.189 38.5145 205.277 40.8185C207.365 43.0865 208.409 46.2185 208.409 50.2145V67.8185H199.229V51.4565C199.229 49.4405 198.707 47.8745 197.663 46.7585C196.619 45.6425 195.215 45.0845 193.451 45.0845C191.687 45.0845 190.283 45.6425 189.239 46.7585C188.195 47.8745 187.673 49.4405 187.673 51.4565V67.8185H178.439V27.8585H187.673V41.7365C188.609 40.4045 189.887 39.3425 191.507 38.5505C193.127 37.7585 194.945 37.3625 196.961 37.3625Z" fill="#101828"/>
<path d="M231.079 59.9885V67.8185H226.381C223.033 67.8185 220.423 67.0085 218.551 65.3885C216.679 63.7325 215.743 61.0505 215.743 57.3425V45.3545H212.071V37.6865H215.743V30.3425H224.977V37.6865H231.025V45.3545H224.977V57.4505C224.977 58.3505 225.193 58.9985 225.625 59.3945C226.057 59.7905 226.777 59.9885 227.785 59.9885H231.079Z" fill="#101828"/>
<path d="M244.917 41.9525C245.781 40.5485 247.023 39.4145 248.643 38.5505C250.263 37.6865 252.117 37.2545 254.205 37.2545C256.689 37.2545 258.939 37.8845 260.955 39.1445C262.971 40.4045 264.555 42.2045 265.707 44.5445C266.895 46.8845 267.489 49.6025 267.489 52.6985C267.489 55.7945 266.895 58.5305 265.707 60.9065C264.555 63.2465 262.971 65.0645 260.955 66.3605C258.939 67.6205 256.689 68.2505 254.205 68.2505C252.081 68.2505 250.227 67.8365 248.643 67.0085C247.059 66.1445 245.817 65.0105 244.917 63.6065V67.8185H235.683V27.8585H244.917V41.9525ZM258.093 52.6985C258.093 50.3945 257.445 48.5945 256.149 47.2985C254.889 45.9665 253.323 45.3005 251.451 45.3005C249.615 45.3005 248.049 45.9665 246.753 47.2985C245.493 48.6305 244.863 50.4485 244.863 52.7525C244.863 55.0565 245.493 56.8745 246.753 58.2065C248.049 59.5385 249.615 60.2045 251.451 60.2045C253.287 60.2045 254.853 59.5385 256.149 58.2065C257.445 56.8385 258.093 55.0025 258.093 52.6985Z" fill="#101828"/>
<path d="M285.509 68.2505C282.557 68.2505 279.893 67.6205 277.517 66.3605C275.177 65.1005 273.323 63.3005 271.955 60.9605C270.623 58.6205 269.957 55.8845 269.957 52.7525C269.957 49.6565 270.641 46.9385 272.009 44.5985C273.377 42.2225 275.249 40.4045 277.625 39.1445C280.001 37.8845 282.665 37.2545 285.617 37.2545C288.569 37.2545 291.233 37.8845 293.609 39.1445C295.985 40.4045 297.857 42.2225 299.225 44.5985C300.593 46.9385 301.277 49.6565 301.277 52.7525C301.277 55.8485 300.575 58.5845 299.171 60.9605C297.803 63.3005 295.913 65.1005 293.501 66.3605C291.125 67.6205 288.461 68.2505 285.509 68.2505ZM285.509 60.2585C287.273 60.2585 288.767 59.6105 289.991 58.3145C291.251 57.0185 291.881 55.1645 291.881 52.7525C291.881 50.3405 291.269 48.4865 290.045 47.1905C288.857 45.8945 287.381 45.2465 285.617 45.2465C283.817 45.2465 282.323 45.8945 281.135 47.1905C279.947 48.4505 279.353 50.3045 279.353 52.7525C279.353 55.1645 279.929 57.0185 281.081 58.3145C282.269 59.6105 283.745 60.2585 285.509 60.2585Z" fill="#101828"/>
<path d="M323.456 67.8185L317.678 59.4485L312.818 67.8185H302.828L312.764 52.4285L302.558 37.6865H312.926L318.704 46.0025L323.564 37.6865H333.554L323.456 52.8605L333.824 67.8185H323.456Z" fill="#101828"/>
</svg>
