<svg width="332" height="96" viewBox="0 0 332 96" fill="none" xmlns="http://www.w3.org/2000/svg">
<circle cx="44" cy="48.5" r="41" stroke="#E63F3A" stroke-width="6"/>
<path d="M60.2636 64.7634C51.9848 73.0422 42.6057 78.4466 34.253 80.5944C25.8248 82.7617 19.0315 81.5141 15.0087 77.4913C10.9859 73.4685 9.73834 66.6752 11.9056 58.247C14.0534 49.8943 19.4579 40.5153 27.7366 32.2365C36.0154 23.9577 45.3945 18.5532 53.7472 16.4054C62.1754 14.2381 68.9687 15.4857 72.9915 19.5085C77.0143 23.5314 78.2619 30.3246 76.0946 38.7528C73.9468 47.1055 68.5424 56.4846 60.2636 64.7634Z" stroke="#E63F3A" stroke-width="6"/>
<path d="M60.2629 32.2364C68.5417 40.5152 73.9461 49.8943 76.0939 58.247C78.2612 66.6752 77.0136 73.4685 72.9908 77.4913C68.968 81.5141 62.1747 82.7617 53.7465 80.5944C45.3938 78.4466 36.0148 73.0421 27.736 64.7634C19.4572 56.4846 14.0528 47.1055 11.9049 38.7528C9.73766 30.3246 10.9852 23.5313 15.008 19.5085C19.0309 15.4857 25.8241 14.2381 34.2523 16.4054C42.605 18.5532 51.9841 23.9576 60.2629 32.2364Z" stroke="#E63F3A" stroke-width="6"/>
<path d="M125.7 68.4801C135.12 68.4801 141.48 63.5601 141.48 55.7001C141.48 39.0801 119.4 46.1601 119.4 37.4001C119.4 34.9401 121.62 33.2601 125.16 33.2601C129.18 33.2601 131.7 35.4201 132 38.7201H140.58C140.34 30.7401 134.22 25.5201 125.16 25.5201C116.64 25.5201 110.64 30.4401 110.64 37.4001C110.64 53.9001 132.42 47.6001 132.42 55.8201C132.42 59.0001 129.72 60.6801 125.7 60.6801C121.26 60.6801 118.44 57.9801 118.08 53.7201H109.44C109.8 62.6601 116.16 68.4801 125.7 68.4801Z" fill="#101828"/>
<path d="M143.52 80.2401H151.86V65.3001C153.48 67.3401 156.42 68.4801 159.84 68.4801C168.54 68.4801 174.42 62.3001 174.42 52.8801C174.42 43.4601 169.02 37.2801 160.56 37.2801C156.66 37.2801 153.66 38.7201 151.86 41.0601V37.7601H143.52V80.2401ZM158.82 61.2801C154.32 61.2801 151.38 57.9201 151.38 52.8801C151.38 47.7801 154.32 44.4201 158.82 44.4201C163.2 44.4201 166.2 47.7801 166.2 52.8801C166.2 57.9201 163.2 61.2801 158.82 61.2801Z" fill="#101828"/>
<path d="M176.438 68.0001H184.778V51.4401C184.778 47.5401 187.358 44.7201 191.018 44.7201C194.498 44.7201 196.898 47.3601 196.898 51.0201V68.0001H205.238V49.1601C205.238 42.2001 200.798 37.2801 194.018 37.2801C189.818 37.2801 186.518 39.0201 184.778 41.9601V24.6201H176.438V68.0001Z" fill="#101828"/>
<path d="M228.569 57.7401C227.909 60.3201 225.689 61.6401 222.329 61.6401C218.129 61.6401 215.429 59.0001 214.829 54.7401H236.549C236.609 54.0801 236.669 53.1801 236.669 52.0401C236.669 45.1401 232.409 37.2801 221.729 37.2801C211.469 37.2801 206.789 45.1401 206.789 52.8201C206.789 60.4401 212.069 68.4801 222.329 68.4801C229.769 68.4801 235.529 64.2801 236.729 57.7401H228.569ZM221.729 43.4001C225.749 43.4001 228.089 46.1001 228.329 49.4601H214.949C215.669 45.2601 217.949 43.4001 221.729 43.4001Z" fill="#101828"/>
<path d="M258.542 44.7201V37.7601H254.239C250.579 37.7601 248.299 39.0201 246.679 42.8001V37.7601H238.279V68.0001H246.679V53.3001C246.679 48.1401 248.539 44.7201 252.679 44.7201H258.542Z" fill="#101828"/>
<path d="M287.342 37.7601H278.942V54.3201C278.942 58.1601 276.362 61.0401 272.702 61.0401C269.282 61.0401 266.882 58.4001 266.882 54.7401V37.7601H258.542V56.6001C258.542 63.5001 262.982 68.4801 269.762 68.4801C273.902 68.4801 277.262 66.6801 278.942 63.8001V68.0001H287.342V37.7601Z" fill="#101828"/>
<path d="M290.942 68.0001H299.282V24.6201H290.942V68.0001Z" fill="#101828"/>
<path d="M323.092 57.7401C322.432 60.3201 320.212 61.6401 316.852 61.6401C312.652 61.6401 309.952 59.0001 309.352 54.7401H331.072C331.132 54.0801 331.192 53.1801 331.192 52.0401C331.192 45.1401 326.932 37.2801 316.252 37.2801C305.992 37.2801 301.312 45.1401 301.312 52.8201C301.312 60.4401 306.592 68.4801 316.852 68.4801C324.292 68.4801 330.052 64.2801 331.252 57.7401H323.092ZM316.252 43.4001C320.272 43.4001 322.612 46.1001 322.852 49.4601H309.472C310.192 45.2601 312.472 43.4001 316.252 43.4001Z" fill="#101828"/>
</svg>
