<svg width="397" height="96" viewBox="0 0 397 96" fill="none" xmlns="http://www.w3.org/2000/svg">
<path d="M73.4128 22.3262C72.5484 21.4617 71.684 20.5973 70.8195 19.7328C68.2262 16.9666 65.46 14.2004 62.0022 12.4715C58.0258 10.3969 53.7036 10.9155 49.3814 10.9155C42.8117 10.9155 26.3873 10.9155 16.7056 10.9155L23.2753 19.7328C35.2046 19.7328 53.8765 19.7328 62.5209 19.7328C66.1515 19.7328 69.2635 20.4244 72.2026 22.3262C72.7213 22.499 73.24 22.499 73.4128 22.3262Z" fill="#66C61C"/>
<path d="M80.6743 36.5034C79.8098 35.6389 78.9454 34.7745 78.081 33.9101C75.4876 31.1439 72.7214 28.3777 69.2637 26.6488C65.2873 24.5741 60.9651 25.0928 56.6429 25.0928C50.9375 25.0928 37.2794 25.0928 27.5977 25.0928L34.1674 33.9101C45.9238 33.9101 62.0024 33.9101 69.9552 33.9101C73.5859 33.9101 76.6979 34.6016 79.637 36.5034C79.9827 36.6763 80.3285 36.6763 80.6743 36.5034Z" fill="#4CA30D"/>
<path d="M88.7997 50.334C87.9353 49.4695 87.0709 48.6051 86.2064 47.7407C83.6131 44.9744 80.8469 42.2082 77.3891 40.4793C73.4127 38.4047 69.0905 38.9234 64.7683 38.9234C59.4088 38.9234 47.6524 38.9234 38.1436 38.9234L44.7133 47.7407C56.1239 47.7407 70.6465 47.7407 77.9078 47.7407C81.5385 47.7407 84.6504 48.4322 87.5895 50.334C88.1082 50.5069 88.454 50.6798 88.7997 50.334Z" fill="#3B7C0F"/>
<path d="M16.0142 73.6736C16.8786 74.5381 17.743 75.4025 18.6075 76.2669C21.2008 79.0331 23.967 81.7993 27.4248 83.5282C31.4012 85.6029 35.7234 85.0842 40.0456 85.0842H72.7214L66.1517 76.2669C54.2224 76.2669 35.5505 76.2669 26.9061 76.2669C23.2755 76.2669 20.1635 75.5754 17.2244 73.6736C16.7057 73.5007 16.3599 73.5007 16.0142 73.6736Z" fill="#66C61C"/>
<path d="M8.75293 59.4973C9.61737 60.3618 10.4818 61.2262 11.3463 62.0907C13.9396 64.8569 16.7058 67.6231 20.1635 69.352C24.1399 71.4266 28.4622 70.908 32.7844 70.908H61.8296L55.2598 62.0907C43.5034 62.0907 27.4248 62.0907 19.472 62.0907C15.8413 62.0907 12.7293 61.3991 9.79024 59.4973C9.44447 59.3245 9.09871 59.3245 8.75293 59.4973Z" fill="#4CA30D"/>
<path d="M0.799805 45.4929C1.66424 46.3574 2.52869 47.2218 3.39313 48.0863C5.98645 50.8525 8.75267 53.6187 12.2104 55.3476C16.1869 57.4222 20.509 56.9036 24.8312 56.9036H51.456L44.8863 48.0863C33.4756 48.0863 18.9531 48.0863 11.6918 48.0863C8.06111 48.0863 4.94911 47.3947 2.01002 45.4929C1.49135 45.3201 1.14558 45.3201 0.799805 45.4929Z" fill="#3B7C0F"/>
<path d="M108.664 28.0161V68.0001H117.456V51.4801H134.2V44.6481H117.456V35.4081H136.776V28.0161H108.664Z" fill="#101828"/>
<path d="M158.827 50.4161H145.891C145.928 49.8561 146.04 49.2214 146.227 48.5121C146.451 47.8028 146.806 47.1308 147.291 46.4961C147.814 45.8615 148.486 45.3388 149.307 44.9281C150.166 44.4801 151.23 44.2561 152.499 44.2561C154.44 44.2561 155.878 44.7788 156.811 45.8241C157.782 46.8694 158.454 48.4001 158.827 50.4161ZM145.891 55.4561H166.779C166.928 53.2161 166.742 51.0694 166.219 49.0161C165.696 46.9628 164.838 45.1334 163.643 43.5281C162.486 41.9228 160.992 40.6535 159.163 39.7201C157.334 38.7494 155.187 38.2641 152.723 38.2641C150.52 38.2641 148.504 38.6561 146.675 39.4401C144.883 40.2241 143.334 41.3068 142.027 42.6881C140.72 44.0321 139.712 45.6374 139.003 47.5041C138.294 49.3708 137.939 51.3868 137.939 53.5521C137.939 55.7921 138.275 57.8454 138.947 59.7121C139.656 61.5788 140.646 63.1841 141.915 64.5281C143.184 65.8721 144.734 66.9174 146.563 67.6641C148.392 68.3734 150.446 68.7281 152.723 68.7281C156.008 68.7281 158.808 67.9814 161.123 66.4881C163.438 64.9948 165.155 62.5121 166.275 59.0401H159.275C159.014 59.9361 158.304 60.7948 157.147 61.6161C155.99 62.4001 154.608 62.7921 153.003 62.7921C150.763 62.7921 149.046 62.2134 147.851 61.0561C146.656 59.8988 146.003 58.0321 145.891 55.4561Z" fill="#101828"/>
<path d="M169.479 47.9521C169.591 46.0854 170.058 44.5361 170.879 43.3041C171.7 42.0721 172.746 41.0828 174.015 40.3361C175.284 39.5894 176.703 39.0668 178.271 38.7681C179.876 38.4321 181.482 38.2641 183.087 38.2641C184.543 38.2641 186.018 38.3761 187.511 38.6001C189.004 38.7868 190.367 39.1788 191.599 39.7761C192.831 40.3734 193.839 41.2134 194.623 42.2961C195.407 43.3414 195.799 44.7414 195.799 46.4961V61.5601C195.799 62.8668 195.874 64.1175 196.023 65.3121C196.172 66.5068 196.434 67.4028 196.807 68.0001H188.743C188.594 67.5521 188.463 67.1041 188.351 66.6561C188.276 66.1708 188.22 65.6855 188.183 65.2001C186.914 66.5068 185.42 67.4214 183.703 67.9441C181.986 68.4668 180.231 68.7281 178.439 68.7281C177.058 68.7281 175.77 68.5601 174.575 68.2241C173.38 67.8881 172.335 67.3654 171.439 66.6561C170.543 65.9468 169.834 65.0508 169.311 63.9681C168.826 62.8854 168.583 61.5975 168.583 60.1041C168.583 58.4615 168.863 57.1174 169.423 56.0721C170.02 54.9894 170.767 54.1308 171.663 53.4961C172.596 52.8614 173.642 52.3948 174.799 52.0961C175.994 51.7601 177.188 51.4988 178.383 51.3121C179.578 51.1255 180.754 50.9761 181.911 50.8641C183.068 50.7521 184.095 50.5841 184.991 50.3601C185.887 50.1361 186.596 49.8188 187.119 49.4081C187.642 48.9601 187.884 48.3254 187.847 47.5041C187.847 46.6454 187.698 45.9734 187.399 45.4881C187.138 44.9654 186.764 44.5735 186.279 44.3121C185.831 44.0134 185.29 43.8268 184.655 43.7521C184.058 43.6401 183.404 43.5841 182.695 43.5841C181.127 43.5841 179.895 43.9201 178.999 44.5921C178.103 45.2641 177.58 46.3841 177.431 47.9521H169.479ZM187.847 53.8321C187.511 54.1308 187.082 54.3734 186.559 54.5601C186.074 54.7094 185.532 54.8401 184.935 54.9521C184.375 55.0641 183.778 55.1574 183.143 55.2321C182.508 55.3068 181.874 55.4001 181.239 55.5121C180.642 55.6241 180.044 55.7734 179.447 55.9601C178.887 56.1468 178.383 56.4081 177.935 56.7441C177.524 57.0428 177.188 57.4348 176.927 57.9201C176.666 58.4054 176.535 59.0215 176.535 59.7681C176.535 60.4775 176.666 61.0748 176.927 61.5601C177.188 62.0455 177.543 62.4374 177.991 62.7361C178.439 62.9974 178.962 63.1841 179.559 63.2961C180.156 63.4081 180.772 63.4641 181.407 63.4641C182.975 63.4641 184.188 63.2028 185.047 62.6801C185.906 62.1574 186.54 61.5414 186.951 60.8321C187.362 60.0854 187.604 59.3388 187.679 58.5921C187.791 57.8454 187.847 57.2481 187.847 56.8001V53.8321Z" fill="#101828"/>
<path d="M210.371 39.0481V30.3681H202.419V39.0481H197.603V44.3681H202.419V61.4481C202.419 62.9041 202.662 64.0801 203.147 64.9761C203.633 65.8721 204.286 66.5628 205.107 67.0481C205.966 67.5335 206.937 67.8508 208.019 68.0001C209.139 68.1868 210.315 68.2801 211.547 68.2801C212.331 68.2801 213.134 68.2614 213.955 68.2241C214.777 68.1868 215.523 68.1121 216.195 68.0001V61.8401C215.822 61.9148 215.43 61.9708 215.019 62.0081C214.609 62.0455 214.179 62.0641 213.731 62.0641C212.387 62.0641 211.491 61.8401 211.043 61.3921C210.595 60.9441 210.371 60.0481 210.371 58.7041V44.3681H216.195V39.0481H210.371Z" fill="#101828"/>
<path d="M218.299 28.0161V68.0001H226.251V52.8241C226.251 49.8748 226.736 47.7654 227.707 46.4961C228.678 45.1894 230.246 44.5361 232.411 44.5361C234.315 44.5361 235.64 45.1334 236.387 46.3281C237.134 47.4854 237.507 49.2588 237.507 51.6481V68.0001H245.459V50.1921C245.459 48.4001 245.291 46.7761 244.955 45.3201C244.656 43.8268 244.115 42.5761 243.331 41.5681C242.547 40.5228 241.464 39.7201 240.083 39.1601C238.739 38.5628 237.003 38.2641 234.875 38.2641C233.382 38.2641 231.851 38.6561 230.283 39.4401C228.715 40.1868 227.427 41.4001 226.419 43.0801H226.251V28.0161H218.299Z" fill="#101828"/>
<path d="M269.302 50.4161H256.366C256.404 49.8561 256.516 49.2214 256.702 48.5121C256.926 47.8028 257.281 47.1308 257.766 46.4961C258.289 45.8615 258.961 45.3388 259.782 44.9281C260.641 44.4801 261.705 44.2561 262.974 44.2561C264.916 44.2561 266.353 44.7788 267.286 45.8241C268.257 46.8694 268.929 48.4001 269.302 50.4161ZM256.366 55.4561H277.254C277.404 53.2161 277.217 51.0694 276.694 49.0161C276.172 46.9628 275.313 45.1334 274.118 43.5281C272.961 41.9228 271.468 40.6535 269.638 39.7201C267.809 38.7494 265.662 38.2641 263.198 38.2641C260.996 38.2641 258.98 38.6561 257.15 39.4401C255.358 40.2241 253.809 41.3068 252.502 42.6881C251.196 44.0321 250.188 45.6374 249.478 47.5041C248.769 49.3708 248.414 51.3868 248.414 53.5521C248.414 55.7921 248.75 57.8454 249.422 59.7121C250.132 61.5788 251.121 63.1841 252.39 64.5281C253.66 65.8721 255.209 66.9174 257.038 67.6641C258.868 68.3734 260.921 68.7281 263.198 68.7281C266.484 68.7281 269.284 67.9814 271.598 66.4881C273.913 64.9948 275.63 62.5121 276.75 59.0401H269.75C269.489 59.9361 268.78 60.7948 267.622 61.6161C266.465 62.4001 265.084 62.7921 263.478 62.7921C261.238 62.7921 259.521 62.2134 258.326 61.0561C257.132 59.8988 256.478 58.0321 256.366 55.4561Z" fill="#101828"/>
<path d="M280.29 39.0481V68.0001H288.242V54.9521C288.242 53.6454 288.373 52.4321 288.634 51.3121C288.896 50.1921 289.325 49.2214 289.922 48.4001C290.557 47.5414 291.378 46.8694 292.386 46.3841C293.394 45.8988 294.626 45.6561 296.082 45.6561C296.568 45.6561 297.072 45.6934 297.594 45.7681C298.117 45.8054 298.565 45.8614 298.938 45.9361V38.5441C298.304 38.3574 297.725 38.2641 297.202 38.2641C296.194 38.2641 295.224 38.4134 294.29 38.7121C293.357 39.0108 292.48 39.4401 291.658 40.0001C290.837 40.5228 290.109 41.1761 289.474 41.9601C288.84 42.7068 288.336 43.5281 287.962 44.4241H287.85V39.0481H280.29Z" fill="#101828"/>
<path d="M310.008 60.6081V35.4081H316.28C318.445 35.4081 320.256 35.7254 321.712 36.3601C323.205 36.9574 324.4 37.8348 325.296 38.9921C326.192 40.1495 326.827 41.5494 327.2 43.1921C327.611 44.7974 327.816 46.6081 327.816 48.6241C327.816 50.8268 327.536 52.6934 326.976 54.2241C326.416 55.7548 325.669 57.0054 324.736 57.9761C323.803 58.9094 322.739 59.5814 321.544 59.9921C320.349 60.4028 319.117 60.6081 317.848 60.6081H310.008ZM301.216 28.0161V68.0001H318.464C321.525 68.0001 324.176 67.4961 326.416 66.4881C328.693 65.4428 330.579 64.0241 332.072 62.2321C333.603 60.4401 334.741 58.3121 335.488 55.8481C336.235 53.3841 336.608 50.6961 336.608 47.7841C336.608 44.4614 336.141 41.5681 335.208 39.1041C334.312 36.6401 333.043 34.5868 331.4 32.9441C329.795 31.3014 327.872 30.0694 325.632 29.2481C323.429 28.4268 321.04 28.0161 318.464 28.0161H301.216Z" fill="#101828"/>
<path d="M359.692 50.4161H346.756C346.793 49.8561 346.905 49.2214 347.092 48.5121C347.316 47.8028 347.671 47.1308 348.156 46.4961C348.679 45.8615 349.351 45.3388 350.172 44.9281C351.031 44.4801 352.095 44.2561 353.364 44.2561C355.305 44.2561 356.743 44.7788 357.676 45.8241C358.647 46.8694 359.319 48.4001 359.692 50.4161ZM346.756 55.4561H367.644C367.793 53.2161 367.607 51.0694 367.084 49.0161C366.561 46.9628 365.703 45.1334 364.508 43.5281C363.351 41.9228 361.857 40.6535 360.028 39.7201C358.199 38.7494 356.052 38.2641 353.588 38.2641C351.385 38.2641 349.369 38.6561 347.54 39.4401C345.748 40.2241 344.199 41.3068 342.892 42.6881C341.585 44.0321 340.577 45.6374 339.868 47.5041C339.159 49.3708 338.804 51.3868 338.804 53.5521C338.804 55.7921 339.14 57.8454 339.812 59.7121C340.521 61.5788 341.511 63.1841 342.78 64.5281C344.049 65.8721 345.599 66.9174 347.428 67.6641C349.257 68.3734 351.311 68.7281 353.588 68.7281C356.873 68.7281 359.673 67.9814 361.988 66.4881C364.303 64.9948 366.02 62.5121 367.14 59.0401H360.14C359.879 59.9361 359.169 60.7948 358.012 61.6161C356.855 62.4001 355.473 62.7921 353.868 62.7921C351.628 62.7921 349.911 62.2134 348.716 61.0561C347.521 59.8988 346.868 58.0321 346.756 55.4561Z" fill="#101828"/>
<path d="M386.696 68.0001L396.496 39.0481H388.6L382.496 58.8161H382.384L376.28 39.0481H367.936L377.848 68.0001H386.696Z" fill="#101828"/>
</svg>
